# xmcd
#
# Track frame offsets:
#	150
#	9528
#	23481
#	39009
#	54012
#	65490
#	80917
#	93669
#	111071
#	129974
#	145652
#	166804
#
# Disc length: 2350 seconds
#
# Revision: 1
# Processed by: cddbd v1.5.2PL0 Copyright (c) Steve Scherf et al.
# Submitted via: audiograbber 1.83.01
#
DISCID=88092c0c
DTITLE=Ronald Beauchamp - Le Destin
DYEAR=2007
DGENRE=Country
TTITLE0=Casino(Ronald Beauchamp-Ronald Beauchamp)
TTITLE1=20 Ans Déjà(Ronald Beauchamp-Ronald Beauchamp)
TTITLE2=Vaut Mieux En Rire(Jocelyn Robitaille-Jocelyn Robitaille)
TTITLE3=Mon Dernier Motel(Ronald Beauchamp-Ronald Beauchamp)
TTITLE4=Les Hauts et Les Bas(Ronald Beauchamp-Ronald Beauchamp)
TTITLE5=Le Destin(Ronald Beauchamp-Ronald Beauchamp)
TTITLE6=La Pilule Du Bonheur(Ginette Lamoureux-Ronald Beauchamp)
TTITLE7=Unis Pour L'éternité(Jocelyn Robitaille-Jocelyn Robitaille)
TTITLE8=Prisonnier Du Bonheur(Ronald Beauchamp-Ronald Beauchamp)
TTITLE9=Pique-Nique Country De Masham(Traditionnel-Ronald Beauchamp)
TTITLE10=Prends Le Temps Mon Vieux(Donat Lacroix-Donat Lacroix)
TTITLE11=Notre Père(Traditionnel-Ronald Beauchamp)
EXTD=
EXTT0=
EXTT1=
EXTT2=
EXTT3=
EXTT4=
EXTT5=
EXTT6=
EXTT7=
EXTT8=
EXTT9=
EXTT10=
EXTT11=
PLAYORDER=
